<?xml version="1.0" encoding="UTF-8" standalone="no"?>
<!-- Generator: Adobe Illustrator 15.0.0, SVG Export Plug-In . SVG Version: 6.00 Build 0)  -->

<svg
   xmlns:dc="http://purl.org/dc/elements/1.1/"
   xmlns:cc="http://creativecommons.org/ns#"
   xmlns:rdf="http://www.w3.org/1999/02/22-rdf-syntax-ns#"
   xmlns:svg="http://www.w3.org/2000/svg"
   xmlns="http://www.w3.org/2000/svg"
   xmlns:sodipodi="http://sodipodi.sourceforge.net/DTD/sodipodi-0.dtd"
   xmlns:inkscape="http://www.inkscape.org/namespaces/inkscape"
   version="1.1"
   x="0px"
   y="0px"
   width="200"
   height="200"
   viewBox="0 0 200 200"
   xml:space="preserve"
   id="svg2"
   inkscape:version="0.48.0 r9654"
   sodipodi:docname="download.svg"><metadata
   id="metadata866"><rdf:RDF><cc:Work
       rdf:about=""><dc:format>image/svg+xml</dc:format><dc:type
         rdf:resource="http://purl.org/dc/dcmitype/StillImage" /><dc:title></dc:title></cc:Work></rdf:RDF></metadata><defs
   id="defs864"><linearGradient
   id="linearGradient5201"><stop
     style="stop-color:#000000;stop-opacity:0.41176471;"
     offset="0"
     id="stop5203" /><stop
     style="stop-color:#000000;stop-opacity:0;"
     offset="1"
     id="stop5205" /></linearGradient>
	
	
	
	
	
	
	
	
	
	
	
	
	
	
	
	
	
	
	
	
	
	
	
	
	
	
	
	
	
	
	
	
	
	
	
	
	
	
	
	
	
	
	
	
	
	
	
	
	
	
	
	
	
	
	
	
	
	
	
	
	
	
	
	
	
	
	
	
	
	
	
	
	
	
	
	
	
	
	
	
	
	
	
	
	
	
	
	
	
	
	
	
	
	
	
	
	
	
	
	
	
	
	
	
	
	
	
	
	
	
	
	
	
	
	
	
	
	
	
	
	
	
	
	
	
	
	
	
	
	
	
	
	
	
	
	
	
	
	
	
	
	
	
	
	
	
	
	
	
	
	
	
	
	
	
	
	
	
	
	
	
	
	
	
	
	
	
	
	
	
	
	
	
	
	
	
	
	
	
	
	
	
	
	
	
	
	
	
	
	
	
	
	
	
	
	
	
	
	
	
	
	
	
	
	
	
	
	
	
	
	
	
	
	
	
	
	
	
	
	

		
	</defs><sodipodi:namedview
   pagecolor="#ffffff"
   bordercolor="#666666"
   borderopacity="1"
   objecttolerance="10"
   gridtolerance="10"
   guidetolerance="10"
   inkscape:pageopacity="0"
   inkscape:pageshadow="2"
   inkscape:window-width="1920"
   inkscape:window-height="1178"
   id="namedview862"
   showgrid="false"
   inkscape:zoom="11.43156"
   inkscape:cx="119.35445"
   inkscape:cy="96.396936"
   inkscape:window-x="-8"
   inkscape:window-y="-8"
   inkscape:window-maximized="1"
   inkscape:current-layer="svg2" />
<path
   id="download"
   d="m 113.39231,120.21418 c 0,6.617 -5.38299,12 -12,12 -6.616995,0 -11.999995,-5.383 -11.999995,-12 0,-6.617 5.383,-12 11.999995,-12 6.61701,0 12,5.383 12,12 z m -3,0 c 0,-4.963 -4.037,-9 -9,-9 -4.962995,0 -8.999995,4.037 -8.999995,9 0,4.963 4.037,9 8.999995,9 4.963,0 9,-4.037 9,-9 z m -3.177,-0.586 -5.647,7.428 c -0.118,0.152 -0.311,0.117 -0.428,-0.035 l -5.647995,-7.374 c -0.118,-0.153 -0.057,-0.433 0.135,-0.433 h 2.765 v -4 -0.141 -0.328 c 0,-0.275 0.225,-0.5 0.5,-0.5 h 4.999995 c 0.27501,0 0.5,0.225 0.5,0.5 v 0.328 0.141 4 h 2.68801 c 0.191,0 0.253,0.263 0.135,0.414 z"
   inkscape:connector-curvature="0"
   style="fill:#ffffff;fill-opacity:1;stroke:none;stroke-opacity:0.08994708999999999"
   inkscape:export-xdpi="60"
   inkscape:export-ydpi="60" />

</svg>